<svg data-v-0dd9719b="" version="1.0" xmlns="http://www.w3.org/2000/svg" xmlns:xlink="http://www.w3.org/1999/xlink" width="100%" height="100%" viewBox="0 0 340.000000 250.000000" preserveAspectRatio="xMidYMid meet" color-interpolation-filters="sRGB" style="margin: auto;"> <rect data-v-0dd9719b="" x="0" y="0" width="100%" height="100%" fill="#ffffff" fill-opacity="1" class="background"></rect> <rect data-v-0dd9719b="" x="0" y="0" width="100%" height="100%" fill="url(#watermark)" fill-opacity="1" class="watermarklayer"></rect> <g data-v-0dd9719b="" fill="#231f20" class="icon-text-wrapper icon-svg-group iconsvg" transform="translate(60.6007995605738,97.73966407775879)"><g class="iconsvg-imagesvg" transform="translate(0,0)"><g><rect fill="#231f20" fill-opacity="0" stroke-width="2" x="0" y="0" width="56.4" height="54.52067242162653" class="image-rect"></rect> <svg x="0" y="0" width="56.4" height="54.52067242162653" filtersec="colorsb9970367738" class="image-svg-svg primary" style="overflow: visible;"><svg xmlns="http://www.w3.org/2000/svg" viewBox="-0.0028839111328125 0.002674102783203125 487.81402587890625 471.55731201171875"><path d="M353.31 26.46c-120.3-61.63-267-11.9-327.41 110.86-57.09 116.14-16.59 256.51 89.84 323.49L161 349.01c-48.37-41.69-60.29-114.58-25.33-170.51 38.11-61 117.54-78.88 177.29-40s77.27 120 39.18 181a129.86 129.86 0 0 1-26.28 30.39l49.68 110.42c35.73-23.73 66-58.15 86.36-99.59 60.34-122.84 11.7-272.63-108.59-334.26z" fill="#231f20"></path><path d="M245.18 223.34q-47.87 124.16-95.73 248.22h192.42q-48.36-124.08-96.69-248.22z" fill="#ee2c24"></path></svg></svg> <!----></g></g> <g transform="translate(59.400001525878906,8.069934844970703)"><g data-gra="path-name" fill-rule="" class="tp-name iconsvg-namesvg"><g transform="scale(0.96)"><g><path d="M14.17 0.56C26.21 0.56 29.96-3.98 29.96-11.7 29.96-18.76 28.78-21.84 19.1-24.36 14.28-25.59 13.44-25.98 13.44-27.78 13.44-29.62 14.84-30.46 18.42-30.46 21.5-30.46 26.38-29.74 28-29.12L28-38.02C25.82-38.75 22.79-39.42 17.92-39.42 8.62-39.42 2.69-36.51 2.69-27.33 2.69-20.44 4.7-17.75 13.22-15.79 18.09-14.62 18.82-13.66 18.82-12.04 18.82-9.63 18.2-8.85 13.55-8.85 10.08-8.85 5.54-9.58 2.97-10.3L2.97-0.73C5.71-0.06 9.86 0.56 14.17 0.56ZM36.57 0L47.71 0 47.71-38.86 36.57-38.86ZM55.1 0L65.91 0 65.91-28.17 66.25-28.17 71.62-6.22 82.49-6.22 88.03-28.17 88.37-28.17 88.37 0 99.29 0 99.29-38.86 81.76-38.86 77.45-19.38 77.11-19.38 73.3-38.86 55.1-38.86ZM125.27 0.56C128.86 0.56 132.38-0.11 134.79-1.01L134.79-10.47C131.82-9.41 128.74-9.07 125.83-9.07 120.34-9.07 117.88-11.09 117.88-19.43 117.88-27.38 120.06-30.02 125.66-30.02 128.86-30.02 131.71-29.51 134.34-28.56L134.34-38.02C131.94-38.92 128.58-39.42 124.77-39.42 113.12-39.42 105.67-34.44 105.67-19.43 105.67-3.14 113.4 0.56 125.27 0.56ZM159.21 0.56C162.79 0.56 166.32-0.11 168.73-1.01L168.73-10.47C165.76-9.41 162.68-9.07 159.77-9.07 154.28-9.07 151.82-11.09 151.82-19.43 151.82-27.38 154-30.02 159.6-30.02 162.79-30.02 165.65-29.51 168.28-28.56L168.28-38.02C165.87-38.92 162.51-39.42 158.7-39.42 147.06-39.42 139.61-34.44 139.61-19.43 139.61-3.14 147.34 0.56 159.21 0.56Z" transform="translate(-2.690000057220459, 39.41999816894531)"></path></g> <!----> <!----> <!----> <!----> <!----> <!----> <!----></g></g> <!----></g></g><defs v-gra="od"></defs></svg>